HIERARCHY
ROOT Pelvis
{
	OFFSET 0.000000 0.000000 0.000000
	CHANNELS 6 Xposition Yposition Zposition Xrotation Yrotation Zrotation
	JOINT LeftUpLeg_virtual
	{
		OFFSET 0.000000 0.000000 0.000000
		CHANNELS 3 Xrotation Yrotation Zrotation
		JOINT LeftUpLeg
		{
			OFFSET 18.735201 -5.666702 -4.541200
			CHANNELS 3 Xrotation Yrotation Zrotation
			JOINT LeftLeg
			{
				OFFSET -0.021200 -31.938179 0.493100
				CHANNELS 3 Xrotation Yrotation Zrotation
				JOINT LeftFoot
				{
					OFFSET 0.021200 -31.938179 -4.336299
					CHANNELS 3 Xrotation Yrotation Zrotation
					JOINT LeftToeBase
					{
						OFFSET 0.943001 -26.722000 15.023500
						CHANNELS 3 Xrotation Yrotation Zrotation
						End Site
						{
							OFFSET 0 0 0
						}
					}
				}
			}
		}
	}
	JOINT RightUpLeg_virtual
	{
		OFFSET 0.000000 0.000000 0.000000
		CHANNELS 3 Xrotation Yrotation Zrotation
		JOINT RightUpLeg
		{
			OFFSET -18.735201 -5.666702 -4.541200
			CHANNELS 3 Xrotation Yrotation Zrotation
			JOINT RightLeg
			{
				OFFSET 0.018946 -31.938133 0.493100
				CHANNELS 3 Xrotation Yrotation Zrotation
				JOINT RightFoot
				{
					OFFSET -0.018946 -31.938126 -4.336299
					CHANNELS 3 Xrotation Yrotation Zrotation
					JOINT RightToeBase
					{
						OFFSET -0.943001 -26.722004 15.023500
						CHANNELS 3 Xrotation Yrotation Zrotation
						End Site
						{
							OFFSET 0 0 0
						}
					}
				}
			}
		}
	}
	JOINT Hips_virtual
	{
		OFFSET 0.000000 0.000000 0.000000
		CHANNELS 3 Xrotation Yrotation Zrotation
		JOINT Hips
		{
			OFFSET -0.000000 -0.000000 -0.000000
			CHANNELS 3 Xrotation Yrotation Zrotation
			JOINT Spine
			{
				OFFSET 0.000000 10.199997 -0.299500
				CHANNELS 3 Xrotation Yrotation Zrotation
				JOINT Spine1
				{
					OFFSET 0.000000 11.900002 -1.516600
					CHANNELS 3 Xrotation Yrotation Zrotation
					JOINT Spine2
					{
						OFFSET 0.000000 13.600006 -2.842500
						CHANNELS 3 Xrotation Yrotation Zrotation
						JOINT Neck_virtual
						{
							OFFSET 0.000000 0.000000 0.000000
							CHANNELS 3 Xrotation Yrotation Zrotation
							JOINT Neck
							{
								OFFSET 0.000000 9.624100 -2.890100
								CHANNELS 3 Xrotation Yrotation Zrotation
								JOINT Head
								{
									OFFSET 0.000000 14.068802 -1.351900
									CHANNELS 3 Xrotation Yrotation Zrotation
									End Site
									{
										OFFSET 0 0 0
									}
								}
							}
						}
						JOINT LeftShoulder_virtual
						{
							OFFSET 0.000000 0.000000 0.000000
							CHANNELS 3 Xrotation Yrotation Zrotation
							JOINT LeftShoulder
							{
								OFFSET 15.263000 10.923401 -0.547700
								CHANNELS 3 Xrotation Yrotation Zrotation
								JOINT LeftArm
								{
									OFFSET 25.438599 -2.830597 -13.032500
									CHANNELS 3 Xrotation Yrotation Zrotation
									JOINT LeftForeArm
									{
										OFFSET 29.960503 0.000000 0.000000
										CHANNELS 3 Xrotation Yrotation Zrotation
										JOINT LeftHand
										{
											OFFSET 27.849251 0.000000 0.000000
											CHANNELS 3 Xrotation Yrotation Zrotation
											End Site
											{
												OFFSET 0 0 0
											}
										}
									}
								}
							}
						}
						JOINT RightShoulder_virtual
						{
							OFFSET 0.000000 0.000000 0.000000
							CHANNELS 3 Xrotation Yrotation Zrotation
							JOINT RightShoulder
							{
								OFFSET -15.263000 10.923401 -0.547700
								CHANNELS 3 Xrotation Yrotation Zrotation
								JOINT RightArm
								{
									OFFSET -25.438599 -2.830597 -13.032500
									CHANNELS 3 Xrotation Yrotation Zrotation
									JOINT RightForeArm
									{
										OFFSET -29.960503 0.000000 0.000000
										CHANNELS 3 Xrotation Yrotation Zrotation
										JOINT RightHand
										{
											OFFSET -27.849251 0.000000 0.000000
											CHANNELS 3 Xrotation Yrotation Zrotation
											End Site
											{
												OFFSET 0 0 0
											}
										}
									}
								}
							}
						}
					}
				}
			}
		}
	}
}
MOTION
Frames: 8
Frame Time: 0.03333333
1.121443 204.079681 3.472771 0.000000 0.000000 0.000000 9.377226 -5.342142 -2.447322 -27.841723 10.829018 13.131952 33.065683 -3.254172 0.310944 -14.689684 -3.264042 -6.632702 0.000000 0.000000 0.000000 6.022727 -0.035395 4.858380 -21.473734 -6.029043 -9.252500 24.481601 2.986649 -0.751188 -24.037121 -1.518018 11.251738 0.000000 0.000000 0.000000 -1.704500 0.848584 0.536253 -5.499782 9.534877 2.548271 11.905040 -0.680159 3.515384 5.245278 -0.264680 2.090096 0.000000 0.000000 0.000000 6.408845 -0.592584 0.012127 1.169719 0.278685 -0.283181 0.000000 0.000000 0.000000 5.565024 1.645157 0.821292 2.673891 4.235733 -6.532522 -3.855585 -7.188142 -53.838191 2.432510 -39.847341 -4.456973 0.000000 0.000000 0.000000 7.635840 -1.370656 2.180089 4.380722 2.141152 12.336327 -3.060818 4.436285 49.091872 0.169093 51.708603 2.950564 0.000000 0.000000 0.000000 
1.171575 204.096039 3.567288 0.000000 0.000000 0.000000 9.307760 -4.969452 -2.453102 -27.989012 10.906196 13.210069 33.074631 -3.220188 0.307559 -14.704892 -3.221132 -6.628430 0.000000 0.000000 0.000000 6.156822 0.232612 4.806696 -21.240135 -5.964163 -9.259592 24.588666 3.008565 -0.752370 -23.985912 -1.492043 11.258708 0.000000 0.000000 0.000000 -1.702275 0.811333 0.528858 -5.512217 9.440167 2.488520 11.939647 -0.715674 3.510744 5.258087 -0.265197 2.117089 0.000000 0.000000 0.000000 6.428468 -0.604183 -0.002938 1.176218 0.285868 -0.289608 0.000000 0.000000 0.000000 5.584038 1.653003 0.833385 2.659666 4.403505 -6.553452 -3.953011 -7.392777 -53.863418 2.458129 -40.212431 -4.451271 0.000000 0.000000 0.000000 7.682525 -1.358551 2.157753 4.393597 2.145034 12.235783 -2.818017 4.412785 48.824142 0.298856 51.797692 2.791115 0.000000 0.000000 0.000000 
1.249689 204.130371 3.717708 0.000000 0.000000 0.000000 9.174374 -4.285954 -2.466367 -28.267945 11.046636 13.350476 33.108512 -3.143423 0.296985 -14.714007 -3.126987 -6.619180 0.000000 0.000000 0.000000 6.401336 0.718710 4.706565 -20.814279 -5.845425 -9.277399 24.776197 3.050303 -0.755121 -23.899539 -1.443205 11.270647 0.000000 0.000000 0.000000 -1.694039 0.745308 0.517755 -5.528564 9.290734 2.376296 12.008449 -0.778603 3.503755 5.291993 -0.269473 2.164886 0.000000 0.000000 0.000000 6.458971 -0.626677 -0.032928 1.186730 0.296349 -0.302685 0.000000 0.000000 0.000000 5.626811 1.662315 0.857489 2.635654 4.700088 -6.584657 -4.134483 -7.772723 -53.919023 2.495225 -40.926534 -4.450053 0.000000 0.000000 0.000000 7.771024 -1.335710 2.118428 4.411189 2.154034 12.048553 -2.361591 4.391773 48.326901 0.559330 51.975168 2.485879 0.000000 0.000000 0.000000 
1.323294 204.183548 3.863648 0.000000 0.000000 0.000000 8.990838 -3.398962 -2.489071 -28.646572 11.227166 13.527024 33.192930 -3.011170 0.273039 -14.683179 -2.969654 -6.604614 0.000000 0.000000 0.000000 6.714768 1.332627 4.565561 -20.269257 -5.693360 -9.311572 25.003839 3.107064 -0.761687 -23.802169 -1.376843 11.281306 0.000000 0.000000 0.000000 -1.672180 0.669220 0.509801 -5.534253 9.155790 2.228225 12.111631 -0.856167 3.497114 5.358124 -0.282576 2.223168 0.000000 0.000000 0.000000 6.487132 -0.659124 -0.077316 1.197562 0.303747 -0.322506 0.000000 0.000000 0.000000 5.700160 1.663272 0.894002 2.609618 5.060015 -6.608141 -4.375788 -8.274381 -54.009239 2.521540 -41.950168 -4.467634 0.000000 0.000000 0.000000 7.893643 -1.304673 2.070980 4.422027 2.167756 11.799829 -1.742984 4.417955 47.669434 0.947373 52.243693 2.061873 0.000000 0.000000 0.000000 
1.366060 204.252899 3.948597 0.000000 0.000000 0.000000 8.781284 -2.436293 -2.521582 -29.077796 11.421903 13.711258 33.353156 -2.814181 0.230074 -14.578875 -2.740975 -6.585126 0.000000 0.000000 0.000000 7.048488 1.963338 4.395141 -19.691599 -5.534054 -9.368362 25.235737 3.170302 -0.777134 -23.714690 -1.300038 11.278693 0.000000 0.000000 0.000000 -1.626033 0.612589 0.513661 -5.513596 9.111671 2.071260 12.250856 -0.936348 3.491196 5.463026 -0.309320 2.280484 0.000000 0.000000 0.000000 6.501322 -0.700807 -0.134668 1.205491 0.301426 -0.348485 0.000000 0.000000 0.000000 5.809517 1.646865 0.944233 2.590603 5.410795 -6.604107 -4.645455 -8.829621 -54.129529 2.515843 -43.211817 -4.514090 0.000000 0.000000 0.000000 8.042641 -1.268913 2.025028 4.417869 2.180672 11.521278 -1.025716 4.541875 46.938194 1.449274 52.612520 1.557131 0.000000 0.000000 0.000000 
1.369283 204.331741 3.941606 0.000000 0.000000 0.000000 8.578163 -1.522872 -2.561881 -29.504894 11.607474 13.878927 33.604510 -2.552941 0.166634 -14.379363 -2.443409 -6.560401 0.000000 0.000000 0.000000 7.359836 2.506246 4.207109 -19.158196 -5.392792 -9.454284 25.453904 3.227292 -0.807795 -23.646205 -1.222169 11.247570 0.000000 0.000000 0.000000 -1.544481 0.612490 0.537295 -5.455796 9.213602 1.939183 12.428714 -1.012820 3.482159 5.603925 -0.352553 2.326833 0.000000 0.000000 0.000000 6.496172 -0.751231 -0.202103 1.208951 0.284648 -0.378907 0.000000 0.000000 0.000000 5.956838 1.608309 1.009928 2.586478 5.691350 -6.556867 -4.909342 -9.368787 -54.263650 2.465864 -44.606815 -4.589720 0.000000 0.000000 0.000000 8.212230 -1.232641 1.988368 4.398239 2.180841 11.244893 -0.275431 4.806268 46.217831 2.037956 53.095944 1.014603 0.000000 0.000000 0.000000 
1.343087 204.411301 3.845932 0.000000 0.000000 0.000000 8.415415 -0.764651 -2.606028 -29.871672 11.765423 14.013028 33.946484 -2.240449 0.088093 -14.080925 -2.093489 -6.527343 0.000000 0.000000 0.000000 7.623010 2.889791 4.008198 -18.716306 -5.287045 -9.576607 25.659740 3.262518 -0.857522 -23.592944 -1.155567 11.175776 0.000000 0.000000 0.000000 -1.420370 0.705241 0.584725 -5.359982 9.475332 1.864041 12.646561 -1.086960 3.462294 5.769333 -0.412543 2.355093 0.000000 0.000000 0.000000 6.474096 -0.809619 -0.275177 1.208337 0.251834 -0.410859 0.000000 0.000000 0.000000 6.140529 1.548355 1.091989 2.601752 5.863178 -6.458851 -5.136904 -9.833392 -54.388591 2.371136 -46.009462 -4.685368 0.000000 0.000000 0.000000 8.398681 -1.200537 1.965389 4.370420 2.151945 10.996585 0.447587 5.235915 45.571493 2.676226 53.705880 0.473233 0.000000 0.000000 0.000000 
1.308417 204.483734 3.692059 0.000000 0.000000 0.000000 8.319810 -0.238983 -2.649283 -30.133910 11.882630 14.103989 34.362675 -1.900739 0.006284 -13.698082 -1.720299 -6.480042 0.000000 0.000000 0.000000 7.833400 3.092172 3.797084 -18.374758 -5.221786 -9.742438 25.864222 3.261292 -0.924248 -23.544781 -1.114517 11.060731 0.000000 0.000000 0.000000 -1.254562 0.915673 0.653471 -5.236977 9.867439 1.866809 12.901890 -1.165921 3.422710 5.944135 -0.487503 2.361360 0.000000 0.000000 0.000000 6.443874 -0.874366 -0.348592 1.205699 0.204531 -0.440682 0.000000 0.000000 0.000000 6.356561 1.472516 1.189112 2.636356 5.912001 -6.311256 -5.310213 -10.184489 -54.485344 2.239173 -47.295139 -4.788351 0.000000 0.000000 0.000000 8.598919 -1.177195 1.956606 4.345445 2.077958 10.791233 1.094135 5.835303 45.025997 3.325120 54.443629 -0.040816 0.000000 0.000000 0.000000 
